<svg width="200" height="200" viewBox="0 0 200 200" fill="none" xmlns="http://www.w3.org/2000/svg">
<path d="M100 200C155.228 200 200 155.228 200 100C200 44.7715 155.228 0 100 0C44.7715 0 0 44.7715 0 100C0 155.228 44.7715 200 100 200Z" fill="#18191B"/>
<path d="M155.31 122.414L123.71 104.168C120.482 102.307 120.482 97.643 123.71 95.7743L155.31 77.5286C159.123 75.3258 160.429 70.4491 158.227 66.6359C156.031 62.8303 151.177 61.5086 147.326 63.719L115.727 81.9647C112.498 83.8258 108.457 81.5014 108.457 77.7717V41.2727C108.457 36.867 104.887 33.2969 100.481 33.2969C96.0758 33.2969 92.5056 36.867 92.5056 41.2727V77.7641C92.5056 81.4938 88.4721 83.8258 85.2362 81.9571L53.6367 63.7114C49.8386 61.5086 44.9468 62.8151 42.7439 66.6283C40.5411 70.4415 41.8552 75.3258 45.676 77.5286L77.2756 95.7743C80.5039 97.6354 80.5039 102.299 77.2756 104.16L45.676 122.406C41.8628 124.609 40.5563 129.486 42.7591 133.306C44.2328 135.866 46.9142 137.287 49.6715 137.287C51.0236 137.287 52.3985 136.945 53.6519 136.216L85.2514 117.97C88.4797 116.109 92.5208 118.433 92.5208 122.163V158.654C92.5208 163.06 96.091 166.63 100.497 166.63C104.902 166.63 108.472 163.06 108.472 158.654V122.163C108.472 118.433 112.506 116.101 115.742 117.97L147.341 136.216C148.602 136.945 149.977 137.287 151.322 137.287C154.079 137.287 156.761 135.859 158.234 133.306C160.429 129.486 159.123 124.617 155.31 122.414Z" fill="white"/>
</svg>
